<svg xmlns="http://www.w3.org/2000/svg" width="213" height="55.418"><defs><clipPath id="a"><path d="M0 0h1190.551v841.89H0V0z"/></clipPath></defs><g clip-path="url(#a)" transform="matrix(.29621 0 0 -.29621 -72.483 162.054)" fill="#003464"><path d="M431.788 499.637v33.068s0 14.383-14.382 14.383H259.082s-14.383 0-14.383-14.383V374.383S244.7 360 259.082 360h158.323s14.382 0 14.382 14.383v19.977c-1.77-1.625-3.542-3.004-6.385-4.981-6.56-4.258-17.035-8.53-29.824-8.53-41.188 0-63.004 27.647-63.004 62.44 0 34.98 24.261 62.44 63.004 62.44 11.472 0 24.261-3.762 29.151-4.891 3.482-.746 5.716-1.06 7.058-1.201m-9.503-105.246c4.032 2.42 5.927 3.908 9.503 7.367v78.352c-2.636 5.19-6.728 9.285-11.384 12.078-6.582 3.949-15.798 6.017-24.825 6.017-28.963 0-45.889-24.26-45.889-54.916 0-25.013 16.173-54.601 45.89-54.601 11.283 0 20.122 1.754 26.705 5.703m102.949 27.457c0 23.321-16.362 40.623-39.495 40.623-23.132 0-39.495-17.302-39.495-40.623 0-23.509 16.175-40.435 39.495-40.435 23.51 0 39.495 16.926 39.495 40.435m-15.234.188c0-15.422-6.958-33.853-24.26-33.853-17.303 0-24.262 18.431-24.262 33.853s6.96 33.665 24.261 33.665c17.303 0 24.261-18.243 24.261-33.665m173.849-17.49c0 8.65-5.078 13.729-9.215 15.798l-23.697 11.472c-6.207 3.009-8.463 6.018-8.463 12.037 0 6.958 5.83 11.848 15.045 11.848 9.78 0 16.738-5.642 20.876-12.977h2.445v15.986c-6.394 1.88-15.986 3.762-23.697 3.762-14.857 0-28.775-8.275-28.775-23.697 0-9.216 4.702-15.046 12.225-18.807l23.321-11.473c3.95-1.88 6.206-4.89 6.206-9.403 0-6.96-5.83-10.908-16.55-10.908-9.78 0-15.56 2.887-21.089 6.926l-3.129-3.897c6.318-6.308 16.695-9.8 24.406-9.8 18.431 0 30.091 8.275 30.091 23.133m224.657 57.925c-20.5 0-37.614-15.61-37.614-40.435 0-24.449 14.105-40.623 40.623-40.623 14.858 0 23.32 7.146 27.458 12.036l-3.197 3.573c-4.702-4.889-11.66-6.582-21.816-6.582-17.867 0-29.903 16.174-27.458 37.802h53.412c.376.941.564 2.633.564 3.95.94 16.174-12.037 30.28-31.972 30.28m16.738-27.835h-37.99c1.693 9.591 9.027 21.063 21.44 21.063 11.848 0 17.867-11.66 16.55-21.063m38.537 67.662c0 10.176-8.25 18.425-18.426 18.425-10.176 0-18.425-8.25-18.425-18.425 0-10.176 8.25-18.425 18.425-18.425 10.176 0 18.425 8.249 18.425 18.425m-2.835 0c0-8.611-6.98-15.591-15.59-15.591s-15.59 6.98-15.59 15.59 6.98 15.592 15.59 15.592 15.59-6.981 15.59-15.591"/><path d="M954.17 493.712v.606c-.83.443-1.687 1.217-2.295 2.02l-4.09 5.254c2.433.69 4.062 2.431 4.062 4.671 0 3.817-3.286 5.28-6.496 5.28-.913 0-3.18-.166-3.981-.166-.47 0-2.182.055-2.791.055v-.69c.968-.22 1.328-.856 1.328-1.38v-13.633c0-.553-.388-1.217-1.3-1.41v-.689c.636 0 2.266.055 2.68.055.47 0 2.21-.055 2.82-.055v.688c-.941.221-1.245.858-1.245 1.411v5.753c.498-.055.968-.11 1.576-.11l4.73-6.058c1.409-1.822 2.486-1.988 5.002-1.602m-5.5 12.58c0-1.66-.912-3.623-3.927-3.623-.72 0-1.383.055-1.881.11v7.302a9.19 9.19 0 0 0 1.715.166c2.628 0 4.094-1.604 4.094-3.955M617.612 382.73s.198 1.75-.99 2.258c-4.48 1.875-6.337 3.573-6.337 7.335v47.205c0 12.6-9.404 22.945-25.578 22.945-11.66 0-20.123-5.83-26.894-12.225l-.752 12.225h-2.07l-19.646-8.651v-2.07c6.207-1.316 8.175-4.137 8.175-10.155v-49.274c0-3.574-2.203-5.667-6.15-7.335-1.056-.478-.886-2.257-.886-2.257h28.656s.173 1.75-.99 2.257c-4.506 1.903-6.337 3.573-6.337 7.335v50.214c3.76 4.702 11.096 10.344 19.559 10.344 13.353 0 18.619-10.532 18.619-23.885v-36.673c0-3.574-2.228-5.638-6.15-7.335-1.228-.507-.992-2.257-.992-2.257h28.763zm106.878 0s.139 1.75-.993 2.258c-4.537 1.875-6.337 3.573-6.337 7.335V511.37h-2.068l-20.399-8.651v-2.07c6.206-1.315 8.174-4.136 8.174-10.155v-98.172c0-3.574-2.256-5.638-6.149-7.335-1.172-.507-.991-2.257-.991-2.257h28.763zm36.045 109.506c0 4.297-3.794 8.22-8.13 8.22s-8.31-3.923-8.31-8.22c0-4.484 3.974-8.22 8.31-8.22s8.13 3.736 8.13 8.22m6.84-109.506s.161 1.75-.993 2.258c-4.515 1.93-6.337 3.573-6.337 7.335v70.15h-2.069l-20.399-8.651v-2.07c6.207-1.316 8.174-4.137 8.174-10.155v-49.274c0-3.574-2.22-5.638-6.149-7.335-1.263-.563-.993-2.257-.993-2.257h28.766zm94.785 0s.336 1.695-.99 2.258c-4.54 1.875-7.047 3.573-7.047 7.335v47.205c0 12.6-9.403 22.945-25.577 22.945-11.66 0-20.124-5.83-26.894-12.225l-.753 12.225h-2.069l-19.646-8.651v-2.07c6.206-1.316 8.174-4.137 8.174-10.155v-49.274c0-3.574-2.199-5.638-6.149-7.335-1.286-.563-.993-2.257-.993-2.257h28.766s.308 1.694-.993 2.257c-4.51 1.875-6.337 3.573-6.337 7.335v50.214c3.761 4.702 11.096 10.344 19.56 10.344 13.352 0 18.618-10.532 18.618-23.885v-36.673c0-3.574-2.934-5.638-6.858-7.335-1.26-.563-.992-2.257-.992-2.257h30.18z"/></g></svg>