<?xml version="1.0" encoding="UTF-8" standalone="no"?>
<!-- Created with Inkscape (http://www.inkscape.org/) -->

<svg
   xmlns:dc="http://purl.org/dc/elements/1.1/"
   xmlns:cc="http://creativecommons.org/ns#"
   xmlns:rdf="http://www.w3.org/1999/02/22-rdf-syntax-ns#"
   xmlns:svg="http://www.w3.org/2000/svg"
   xmlns="http://www.w3.org/2000/svg"
   version="1.1"
   width="213"
   height="55.417763"
   id="svg2"
   xml:space="preserve"><metadata
     id="metadata8"><rdf:RDF><cc:Work
         rdf:about=""><dc:format>image/svg+xml</dc:format><dc:type
           rdf:resource="http://purl.org/dc/dcmitype/StillImage" /><dc:title></dc:title></cc:Work></rdf:RDF></metadata><defs
     id="defs6"><clipPath
       id="clipPath24"><path
         d="m 0,0 1190.551,0 0,841.89 L 0,841.89 0,0 z"
         id="path26" /></clipPath></defs><g
     transform="matrix(1.25,0,0,-1.25,-305.87563,505.41739)"
     id="g10"><g
       transform="matrix(0.23696982,0,0,0.23696982,186.71387,274.69064)"
       id="g20"><g
         clip-path="url(#clipPath24)"
         id="g22"><g
           transform="translate(431.7875,499.6367)"
           id="g28"><path
             d="m 0,0 0,33.068 c 0,0 0,14.383 -14.382,14.383 l -158.323,0 c 0,0 -14.382,0 -14.382,-14.383 l 0,-158.322 c 0,0 0,-14.383 14.382,-14.383 l 158.323,0 c 0,0 14.382,0 14.382,14.383 l 0,19.977 c -1.77,-1.625 -3.542,-3.004 -6.385,-4.981 -6.561,-4.258 -17.035,-8.529 -29.824,-8.529 -41.188,0 -63.004,27.646 -63.004,62.439 0,34.981 24.261,62.44 63.004,62.44 11.472,0 24.261,-3.762 29.151,-4.891 C -3.576,0.455 -1.342,0.141 0,0 m -9.503,-105.246 c 4.032,2.42 5.927,3.908 9.503,7.367 l 0,78.352 c -2.636,5.191 -6.728,9.285 -11.384,12.078 -6.582,3.949 -15.798,6.017 -24.825,6.017 -28.963,0 -45.889,-24.259 -45.889,-54.916 0,-25.013 16.173,-54.601 45.889,-54.601 11.284,0 20.123,1.754 26.706,5.703"
             id="path30"
             style="fill:#003464;fill-opacity:1;fill-rule:nonzero;stroke:none" /></g><g
           transform="translate(525.2331,421.8482)"
           id="g32"><path
             d="M 0,0 C 0,23.321 -16.362,40.623 -39.495,40.623 -62.627,40.623 -78.99,23.321 -78.99,0 c 0,-23.509 16.175,-40.435 39.495,-40.435 C -15.986,-40.435 0,-23.509 0,0 m -15.234,0.188 c 0,-15.422 -6.958,-33.853 -24.261,-33.853 -17.302,0 -24.261,18.431 -24.261,33.853 0,15.422 6.959,33.665 24.261,33.665 17.303,0 24.261,-18.243 24.261,-33.665"
             id="path34"
             style="fill:#003464;fill-opacity:1;fill-rule:nonzero;stroke:none" /></g><g
           transform="translate(683.8483,404.5458)"
           id="g36"><path
             d="M 0,0 C 0,8.651 -5.078,13.729 -9.215,15.798 L -32.912,27.27 c -6.207,3.009 -8.463,6.018 -8.463,12.037 0,6.958 5.83,11.848 15.045,11.848 9.78,0 16.738,-5.642 20.876,-12.977 l 2.445,0 0,15.986 c -6.394,1.881 -15.986,3.762 -23.697,3.762 -14.857,0 -28.775,-8.275 -28.775,-23.697 0,-9.216 4.702,-15.046 12.225,-18.807 L -19.935,3.949 c 3.949,-1.88 6.206,-4.889 6.206,-9.403 0,-6.959 -5.83,-10.908 -16.55,-10.908 -9.78,0 -15.561,2.887 -21.089,6.926 l -3.129,-3.897 c 6.318,-6.308 16.695,-9.8 24.406,-9.8 C -11.66,-23.133 0,-14.858 0,0"
             id="path38"
             style="fill:#003464;fill-opacity:1;fill-rule:nonzero;stroke:none" /></g><g
           transform="translate(908.5049,462.4714)"
           id="g40"><path
             d="m 0,0 c -20.5,0 -37.614,-15.61 -37.614,-40.435 0,-24.449 14.105,-40.623 40.623,-40.623 14.858,0 23.321,7.146 27.458,12.036 l -3.197,3.573 c -4.702,-4.889 -11.66,-6.582 -21.816,-6.582 -17.867,0 -29.903,16.174 -27.458,37.802 l 53.412,0 c 0.376,0.941 0.564,2.633 0.564,3.95 C 32.912,-14.105 19.935,0 0,0 m 16.738,-27.834 -37.99,0 c 1.693,9.591 9.027,21.063 21.44,21.063 11.848,0 17.867,-11.66 16.55,-21.063"
             id="path42"
             style="fill:#003464;fill-opacity:1;fill-rule:nonzero;stroke:none" /></g><g
           transform="translate(963.7794,502.2988)"
           id="g44"><path
             d="M 0,0 C 0,10.176 -8.249,18.425 -18.425,18.425 -28.601,18.425 -36.85,10.176 -36.85,0 c 0,-10.176 8.249,-18.425 18.425,-18.425 C -8.249,-18.425 0,-10.176 0,0 m -2.835,0 c 0,-8.611 -6.98,-15.591 -15.59,-15.591 -8.611,0 -15.591,6.98 -15.591,15.591 0,8.61 6.98,15.591 15.591,15.591 8.61,0 15.59,-6.981 15.59,-15.591"
             id="path46"
             style="fill:#003464;fill-opacity:1;fill-rule:nonzero;stroke:none" /></g><g
           transform="translate(954.1699,493.7125)"
           id="g48"><path
             d="M 0,0 0,0.606 C -0.829,1.049 -1.687,1.823 -2.295,2.625 L -6.384,7.88 c 2.432,0.69 4.061,2.431 4.061,4.671 0,3.817 -3.286,5.279 -6.496,5.279 -0.913,0 -3.18,-0.165 -3.981,-0.165 -0.469,0 -2.182,0.055 -2.791,0.055 l 0,-0.69 c 0.968,-0.22 1.328,-0.856 1.328,-1.381 l 0,-13.632 c 0,-0.553 -0.388,-1.217 -1.3,-1.411 l 0,-0.688 c 0.636,0 2.266,0.055 2.68,0.055 0.47,0 2.211,-0.055 2.82,-0.055 l 0,0.688 c -0.941,0.221 -1.245,0.858 -1.245,1.411 l 0,5.753 c 0.498,-0.055 0.968,-0.11 1.576,-0.11 l 4.73,-6.058 C -3.593,-0.22 -2.516,-0.386 0,0 m -5.499,12.579 c 0,-1.659 -0.913,-3.623 -3.928,-3.623 -0.719,0 -1.383,0.055 -1.881,0.11 l 0,7.302 c 0.553,0.111 1.189,0.166 1.715,0.166 2.628,0 4.094,-1.604 4.094,-3.955"
             id="path50"
             style="fill:#003464;fill-opacity:1;fill-rule:nonzero;stroke:none" /></g><g
           transform="translate(617.6125,382.7307)"
           id="g52"><path
             d="m 0,0 c 0,0 0.198,1.75 -0.991,2.257 -4.48,1.875 -6.337,3.573 -6.337,7.335 l 0,47.205 c 0,12.601 -9.404,22.945 -25.578,22.945 -11.66,0 -20.123,-5.83 -26.894,-12.225 l -0.752,12.225 -2.069,0 -19.647,-8.651 0,-2.069 c 6.207,-1.317 8.175,-4.138 8.175,-10.156 l 0,-49.274 c 0,-3.574 -2.203,-5.667 -6.149,-7.335 C -81.298,1.779 -81.128,0 -81.128,0 l 28.656,0 c 0,0 0.173,1.75 -0.991,2.257 C -57.969,4.16 -59.8,5.83 -59.8,9.592 l 0,50.214 c 3.761,4.702 11.096,10.344 19.559,10.344 13.353,0 18.619,-10.532 18.619,-23.885 l 0,-36.673 c 0,-3.574 -2.228,-5.638 -6.149,-7.335 C -28.999,1.75 -28.763,0 -28.763,0 L 0,0 z"
             id="path54"
             style="fill:#003464;fill-opacity:1;fill-rule:nonzero;stroke:none" /></g><g
           transform="translate(724.49,382.7307)"
           id="g56"><path
             d="M 0,0 C 0,0 0.139,1.75 -0.993,2.257 -5.53,4.132 -7.33,5.83 -7.33,9.592 l 0,119.048 -2.068,0 -20.399,-8.651 0,-2.069 c 6.206,-1.316 8.174,-4.137 8.174,-10.156 l 0,-98.172 c 0,-3.574 -2.256,-5.638 -6.149,-7.335 C -28.944,1.75 -28.763,0 -28.763,0 L 0,0 z"
             id="path58"
             style="fill:#003464;fill-opacity:1;fill-rule:nonzero;stroke:none" /></g><g
           transform="translate(760.5353,492.2359)"
           id="g60"><path
             d="m 0,0 c 0,4.297 -3.794,8.22 -8.13,8.22 -4.336,0 -8.311,-3.923 -8.311,-8.22 0,-4.484 3.975,-8.22 8.311,-8.22 C -3.794,-8.22 0,-4.484 0,0"
             id="path62"
             style="fill:#003464;fill-opacity:1;fill-rule:nonzero;stroke:none" /></g><g
           transform="translate(767.3754,382.7307)"
           id="g64"><path
             d="M 0,0 C 0,0 0.161,1.75 -0.993,2.257 -5.508,4.188 -7.33,5.83 -7.33,9.592 l 0,70.15 -2.069,0 -20.399,-8.651 0,-2.069 c 6.207,-1.317 8.174,-4.138 8.174,-10.156 l 0,-49.274 c 0,-3.574 -2.221,-5.638 -6.149,-7.335 C -29.036,1.694 -28.766,0 -28.766,0 L 0,0 z"
             id="path66"
             style="fill:#003464;fill-opacity:1;fill-rule:nonzero;stroke:none" /></g><g
           transform="translate(862.1603,382.7307)"
           id="g68"><path
             d="m 0,0 c 0,0 0.336,1.694 -0.991,2.257 -4.54,1.875 -7.046,3.573 -7.046,7.335 l 0,47.205 c 0,12.601 -9.403,22.945 -25.577,22.945 -11.661,0 -20.124,-5.83 -26.894,-12.225 l -0.753,12.225 -2.069,0 -19.646,-8.651 0,-2.069 c 6.206,-1.317 8.174,-4.138 8.174,-10.156 l 0,-49.274 c 0,-3.574 -2.199,-5.638 -6.149,-7.335 C -82.237,1.694 -81.944,0 -81.944,0 l 28.766,0 c 0,0 0.308,1.694 -0.993,2.257 -4.51,1.875 -6.337,3.573 -6.337,7.335 l 0,50.214 c 3.761,4.702 11.096,10.344 19.559,10.344 13.353,0 18.619,-10.532 18.619,-23.885 l 0,-36.673 c 0,-3.574 -2.934,-5.638 -6.858,-7.335 C -30.448,1.694 -30.18,0 -30.18,0 L 0,0 z"
             id="path70"
             style="fill:#003464;fill-opacity:1;fill-rule:nonzero;stroke:none" /></g></g></g></g></svg>